<svg xmlns="http://www.w3.org/2000/svg" width="98.552" height="13.825" viewBox="0 0 98.552 13.825">
  <g id="Group_544" data-name="Group 544" transform="translate(-1027.241 -4872.507)">
    <path id="ic_star_24px" d="M9.276,13.111l4.5,2.714L12.579,10.71l3.973-3.442-5.232-.444L9.276,2,7.232,6.824,2,7.268,5.973,10.71,4.779,15.825Z" transform="translate(1025.241 4870.507)" fill="#e3cd07"/>
    <path id="ic_star_24px-2" data-name="ic_star_24px" d="M9.276,13.111l4.5,2.714L12.579,10.71l3.973-3.442-5.232-.444L9.276,2,7.232,6.824,2,7.268,5.973,10.71,4.779,15.825Z" transform="translate(1046.241 4870.507)" fill="#e3cd07"/>
    <path id="ic_star_24px-3" data-name="ic_star_24px" d="M9.276,13.111l4.5,2.714L12.579,10.71l3.973-3.442-5.232-.444L9.276,2,7.232,6.824,2,7.268,5.973,10.71,4.779,15.825Z" transform="translate(1067.241 4870.507)" fill="#e3cd07"/>
    <path id="ic_star_24px-4" data-name="ic_star_24px" d="M9.276,13.111l4.5,2.714L12.579,10.71l3.973-3.442-5.232-.444L9.276,2,7.232,6.824,2,7.268,5.973,10.71,4.779,15.825Z" transform="translate(1088.241 4870.507)" fill="#e3cd07"/>
    <path id="ic_star_24px-5" data-name="ic_star_24px" d="M9.276,13.111l4.5,2.714L12.579,10.71l3.973-3.442-5.232-.444L9.276,2,7.232,6.824,2,7.268,5.973,10.71,4.779,15.825Z" transform="translate(1109.241 4870.507)" fill="#e3cd07"/>
  </g>
</svg>
