<svg xmlns="http://www.w3.org/2000/svg" xmlns:xlink="http://www.w3.org/1999/xlink" width="101.552" height="13.825" viewBox="0 0 101.552 13.825">
  <defs>
    <clipPath id="clip-path">
      <rect width="101.552" height="13.825" fill="none"/>
    </clipPath>
  </defs>
  <g id="Group_538" data-name="Group 538" transform="translate(-328.447 -4918.77)">
    <g id="Repeat_Grid_55" data-name="Repeat Grid 55" transform="translate(328.447 4918.77)" clip-path="url(#clip-path)">
      <g transform="translate(-185 -1169)">
        <path id="ic_star_24px" d="M9.276,13.111l4.5,2.714L12.579,10.71l3.973-3.442-5.232-.444L9.276,2,7.232,6.824,2,7.268,5.973,10.71,4.779,15.825Z" transform="translate(183 1167)" fill="#e3cd07"/>
      </g>
      <g transform="translate(-164 -1169)">
        <path id="ic_star_24px-2" data-name="ic_star_24px" d="M9.276,13.111l4.5,2.714L12.579,10.71l3.973-3.442-5.232-.444L9.276,2,7.232,6.824,2,7.268,5.973,10.71,4.779,15.825Z" transform="translate(183 1167)" fill="#e3cd07"/>
      </g>
      <g transform="translate(-143 -1169)">
        <path id="ic_star_24px-3" data-name="ic_star_24px" d="M9.276,13.111l4.5,2.714L12.579,10.71l3.973-3.442-5.232-.444L9.276,2,7.232,6.824,2,7.268,5.973,10.71,4.779,15.825Z" transform="translate(183 1167)" fill="#e3cd07"/>
      </g>
      <g transform="translate(-122 -1169)">
        <path id="ic_star_24px-4" data-name="ic_star_24px" d="M9.276,13.111l4.5,2.714L12.579,10.71l3.973-3.442-5.232-.444L9.276,2,7.232,6.824,2,7.268,5.973,10.71,4.779,15.825Z" transform="translate(183 1167)" fill="#e3cd07"/>
      </g>
      <g transform="translate(-101 -1169)">
        <path id="ic_star_24px-5" data-name="ic_star_24px" d="M9.276,13.111l4.5,2.714L12.579,10.71l3.973-3.442-5.232-.444L9.276,2,7.232,6.824,2,7.268,5.973,10.71,4.779,15.825Z" transform="translate(183 1167)" fill="#e3cd07"/>
      </g>
    </g>
  </g>
</svg>
